<?xml version="1.0" standalone="no"?>
<!DOCTYPE svg PUBLIC "-//W3C//DTD SVG 20010904//EN"
 "http://www.w3.org/TR/2001/REC-SVG-20010904/DTD/svg10.dtd">
<svg version="1.0" xmlns="http://www.w3.org/2000/svg"
 width="315.000000pt" height="315.000000pt" viewBox="0 0 315.000000 315.000000"
 preserveAspectRatio="xMidYMid meet">
<metadata>
Created by potrace 1.11, written by Peter Selinger 2001-2013
</metadata>
<g transform="translate(0.000000,315.000000) scale(0.100000,-0.100000)"
fill="#000000" stroke="none">
<path d="M1924 3097 c-53 -49 -69 -105 -55 -182 10 -56 13 -58 52 -57 83 2
132 127 97 243 -15 52 -37 51 -94 -4z"/>
<path d="M1610 3065 c-14 -17 -23 -73 -21 -134 3 -82 76 -172 119 -145 9 6 17
15 18 20 0 5 3 16 6 24 24 63 26 78 9 127 -18 54 -27 66 -78 101 -37 26 -37
26 -53 7z"/>
<path d="M919 3012 c-26 -5 -42 -51 -44 -128 -3 -62 0 -75 24 -111 51 -81 106
-81 131 -2 7 24 14 51 15 59 2 39 -59 150 -83 150 -7 0 -16 8 -20 18 -4 10
-14 16 -23 14z"/>
<path d="M1245 2930 c-11 -4 -30 -18 -43 -29 -46 -45 -55 -70 -56 -148 0 -99
19 -115 103 -88 19 6 38 38 56 95 17 55 -7 182 -34 179 -3 0 -15 -4 -26 -9z"/>
<path d="M1782 2765 c1 -22 -2 -67 -6 -100 -3 -33 -9 -85 -12 -115 -3 -30 -7
-68 -10 -85 -3 -16 -7 -46 -9 -65 -4 -34 -36 -222 -50 -290 -2 -8 -4 -19 -4
-25 -1 -5 -5 -16 -10 -24 -19 -29 -97 45 -177 169 -16 25 -32 47 -36 48 -5 2
-8 10 -8 17 0 7 -7 15 -15 19 -9 3 -15 0 -15 -8 0 -14 98 -216 109 -226 3 -3
33 -33 65 -67 59 -62 59 -62 48 -100 -6 -21 -13 -51 -16 -68 -3 -16 -14 -64
-25 -104 -11 -41 -18 -78 -15 -82 2 -4 0 -10 -5 -13 -5 -3 -12 -27 -16 -53 -4
-27 -10 -52 -13 -58 -4 -5 -7 -16 -9 -24 -5 -35 -22 -31 -52 12 -17 25 -38 53
-47 61 -8 9 -12 16 -8 16 4 0 0 8 -8 18 -9 9 -44 64 -79 122 -164 274 -258
500 -208 500 5 0 29 16 55 35 25 19 43 35 39 35 -4 0 0 7 8 15 27 26 59 84 55
100 -2 11 -14 5 -43 -23 -46 -45 -118 -92 -139 -92 -9 0 -21 10 -27 22 -16 31
-15 194 3 347 11 98 -63 -64 -78 -171 -9 -64 -9 -182 0 -223 4 -16 8 -37 10
-45 1 -8 7 -33 14 -55 6 -22 11 -44 10 -50 -2 -14 -32 -7 -92 19 -28 13 -64
25 -81 29 -16 3 -24 4 -17 1 6 -3 10 -10 6 -15 -3 -5 0 -9 6 -9 6 0 23 -11 38
-25 15 -14 32 -25 38 -25 6 0 16 -6 22 -13 6 -7 35 -20 63 -27 44 -12 54 -20
67 -50 9 -19 15 -38 14 -42 -1 -5 3 -8 8 -8 6 0 10 -4 10 -9 0 -6 31 -74 69
-153 100 -206 119 -280 109 -413 -1 -11 -13 -42 -27 -70 -23 -43 -31 -51 -66
-58 -37 -8 -326 -2 -385 7 -14 2 -56 7 -95 10 -69 7 -90 18 -79 46 19 52 14
254 -6 234 -5 -5 -11 -40 -15 -79 -6 -79 -40 -158 -69 -163 -53 -10 -165 68
-212 147 -10 17 -22 31 -26 31 -4 0 -8 7 -8 15 0 8 -4 15 -8 15 -4 0 -8 -11
-8 -25 0 -14 3 -25 7 -25 4 0 10 -14 14 -30 6 -29 69 -121 87 -128 4 -2 14
-10 22 -17 21 -21 111 -67 224 -114 115 -49 136 -68 120 -112 -11 -31 -83
-110 -136 -149 -45 -33 -62 -50 -62 -60 0 -12 33 -7 48 8 7 6 19 12 27 12 20
0 115 67 160 114 23 22 52 60 65 83 l23 43 96 -5 c53 -3 105 -7 116 -9 82 -17
138 -41 178 -78 60 -56 160 -244 172 -323 3 -16 9 -52 15 -80 24 -111 34 -341
17 -363 -5 -6 -20 -12 -33 -12 -12 0 -25 -4 -28 -9 -5 -8 -64 -25 -78 -22 -5
0 -8 -3 -8 -9 0 -5 -9 -10 -20 -10 -11 0 -20 -5 -20 -10 0 -6 -3 -9 -8 -8 -14
5 -94 -60 -83 -67 6 -3 16 -3 22 1 7 4 53 15 103 25 75 16 124 18 281 15 105
-3 201 -7 215 -11 14 -3 50 -10 80 -15 30 -6 66 -12 79 -15 38 -7 44 5 14 31
-34 30 -178 104 -201 104 -36 0 -44 17 -48 91 -15 339 -15 542 1 622 30 144
52 161 176 128 76 -20 149 -32 230 -36 25 -1 55 -8 66 -13 30 -16 62 -89 80
-185 6 -33 22 -36 24 -4 3 48 1 93 -5 117 -20 83 -24 76 41 87 74 13 85 16 99
28 6 6 25 21 42 34 40 30 33 45 -11 23 -48 -25 -218 -21 -322 7 -44 13 -84 24
-90 25 -68 16 -265 98 -259 108 3 4 44 31 92 59 48 28 125 79 172 112 108 78
99 71 142 107 l38 32 43 -44 c101 -103 168 -140 258 -140 54 0 73 5 112 28 52
32 73 61 34 48 -48 -17 -133 -7 -175 20 -23 14 -44 26 -48 26 -8 0 -117 85
-132 103 -10 12 2 28 66 93 110 111 214 295 237 422 3 15 7 38 10 52 12 49 17
170 9 170 -10 0 -16 -13 -59 -125 -35 -89 -115 -245 -127 -245 -5 0 -7 -4 -4
-9 3 -5 0 -11 -7 -14 -33 -12 -50 69 -51 240 -1 108 -9 150 -21 102 -16 -68
-21 -123 -19 -209 2 -105 9 -154 26 -187 9 -19 7 -28 -17 -59 -58 -76 -162
-170 -270 -246 -96 -67 -283 -147 -386 -166 -30 -6 -61 -12 -69 -14 -10 -2
-15 5 -14 22 2 24 18 127 29 180 3 14 7 45 10 70 3 25 10 77 15 115 15 108 20
146 24 195 6 57 17 124 22 129 9 9 72 1 109 -15 63 -25 77 -47 76 -111 0 -30
-3 -64 -6 -74 -4 -10 -2 -19 4 -19 11 0 41 90 41 122 0 28 23 22 61 -17 46
-46 51 -53 85 -110 31 -53 45 -44 25 18 -6 17 -10 34 -8 37 1 3 -19 35 -45 71
-26 37 -46 68 -45 70 1 2 0 3 -2 2 -1 -1 -29 16 -61 38 -31 21 -65 39 -74 39
-9 0 -16 4 -16 10 0 8 -94 27 -112 22 -5 -1 -8 3 -8 9 0 5 -5 7 -11 3 -10 -6
-5 103 8 161 2 11 4 90 4 176 1 123 -3 163 -15 185 l-15 29 1 -40z"/>
<path d="M2621 2712 c-28 -26 -52 -57 -52 -68 -8 -121 -1 -167 28 -178 35 -14
110 44 121 93 18 83 1 193 -31 199 -9 2 -39 -19 -66 -46z"/>
<path d="M1450 2724 c-50 -35 -71 -83 -73 -168 -2 -69 -1 -71 27 -83 39 -18
49 -16 77 10 53 49 69 89 64 161 -7 109 -29 127 -95 80z"/>
<path d="M2339 2713 c-6 -16 -13 -53 -16 -85 -7 -67 21 -135 68 -168 50 -36
85 1 96 101 6 58 -21 116 -70 153 -43 33 -65 33 -78 -1z"/>
<path d="M1983 2710 c-47 -10 -103 -84 -97 -127 1 -7 2 -19 3 -26 2 -20 56
-47 95 -47 26 0 44 8 64 28 58 56 83 122 58 148 -19 19 -85 32 -123 24z"/>
<path d="M680 2689 c0 -5 -3 -8 -7 -7 -5 1 -18 -3 -30 -10 -19 -11 -22 -18
-17 -50 8 -51 44 -111 76 -128 34 -18 99 -18 122 -1 37 27 18 148 -27 176 -24
16 -117 31 -117 20z"/>
<path d="M1563 2541 c-17 -27 -26 -105 -18 -156 5 -35 16 -55 46 -84 56 -56
93 -39 109 52 14 75 -15 145 -80 190 -31 22 -42 21 -57 -2z"/>
<path d="M2860 2466 c-39 -22 -73 -75 -76 -118 -2 -35 1 -41 29 -59 39 -23 94
-25 125 -4 27 20 74 98 78 131 3 31 -27 52 -87 59 -28 3 -53 0 -69 -9z"/>
<path d="M2030 2420 c-28 -4 -41 -15 -67 -54 -40 -59 -41 -78 -5 -114 39 -41
97 -43 138 -5 27 25 74 108 74 133 0 24 -85 49 -140 40z"/>
<path d="M664 2288 c-3 -10 -9 -18 -14 -18 -7 0 -60 -103 -60 -118 0 -17 64
-44 105 -45 57 -1 93 25 127 89 l25 48 -34 33 c-31 31 -38 34 -88 32 -43 -2
-56 -6 -61 -21z"/>
<path d="M1295 2252 c-27 -19 -49 -70 -50 -115 -1 -74 37 -142 96 -173 24 -12
28 -11 43 5 10 11 19 38 22 62 3 24 6 53 8 64 5 31 -32 107 -66 138 -33 29
-37 31 -53 19z"/>
<path d="M2202 2245 c-28 -20 -62 -86 -62 -119 0 -35 47 -66 101 -66 37 0 48
5 80 39 45 49 65 116 42 140 -23 23 -131 27 -161 6z"/>
<path d="M2807 2099 c-28 -22 -67 -86 -67 -113 0 -8 11 -27 24 -42 20 -24 31
-28 74 -28 36 0 57 6 72 19 29 26 68 99 66 126 -3 52 -116 77 -169 38z"/>
<path d="M1500 1962 c-59 -26 -90 -79 -90 -153 0 -58 17 -116 36 -123 21 -8
92 46 109 84 20 44 24 151 7 176 -10 15 -44 24 -62 16z"/>
<path d="M1843 1950 c-12 -5 -33 -26 -47 -46 -22 -33 -25 -46 -22 -113 1 -42
9 -86 16 -98 13 -20 15 -21 44 -6 73 37 100 86 99 175 0 92 -24 115 -90 88z"/>
<path d="M541 1892 c-5 -10 -13 -40 -18 -67 -16 -91 16 -182 75 -214 30 -16
50 -3 71 45 29 65 15 146 -34 198 -44 47 -81 62 -94 38z"/>
<path d="M887 1882 c-61 -45 -77 -77 -77 -158 0 -57 4 -74 20 -92 34 -36 94
-9 130 58 17 31 16 165 -1 196 -16 31 -27 30 -72 -4z"/>
<path d="M288 1859 c-10 -5 -22 -34 -28 -66 -18 -83 1 -152 52 -199 49 -43 69
-36 96 39 27 70 14 130 -37 185 -42 44 -61 54 -83 41z"/>
<path d="M2665 1854 c-69 -36 -106 -109 -99 -197 7 -76 40 -96 103 -59 42 23
75 100 67 156 -3 23 -7 51 -9 64 -1 12 -9 29 -18 37 -13 13 -18 13 -44 -1z"/>
<path d="M2940 1673 c-22 -8 -66 -60 -80 -93 -23 -55 27 -110 100 -110 53 0
129 91 130 156 0 36 -98 66 -150 47z"/>
<path d="M990 1515 c-7 -8 -18 -15 -25 -15 -20 0 -58 -68 -57 -101 2 -81 124
-110 180 -42 30 36 58 93 57 117 0 42 -126 75 -155 41z"/>
<path d="M72 1446 c-55 -27 9 -173 85 -192 35 -9 96 3 110 21 20 28 -3 120
-40 163 -17 18 -30 22 -76 21 -31 -1 -66 -6 -79 -13z"/>
<path d="M2380 1425 c-29 -10 -36 -18 -40 -46 -7 -44 24 -111 60 -133 35 -20
92 -21 130 -1 36 18 37 34 8 91 -39 79 -95 110 -158 89z"/>
<path d="M2058 1388 c-29 -8 -38 -15 -38 -31 0 -35 54 -131 80 -144 30 -15 94
-17 119 -4 23 13 26 73 5 118 -30 62 -86 83 -166 61z"/>
<path d="M2699 1314 c-33 -40 4 -149 59 -174 42 -19 123 -6 144 24 11 17 -30
110 -62 139 -24 22 -40 27 -79 27 -33 0 -53 -5 -62 -16z"/>
<path d="M353 1192 c-22 -12 -24 -18 -18 -45 3 -18 7 -37 9 -43 1 -7 6 -18 12
-25 5 -8 16 -26 23 -40 14 -28 44 -39 111 -39 41 0 67 22 65 55 -1 11 -2 32
-3 47 -1 15 -15 41 -32 59 -16 18 -27 35 -25 38 7 12 -117 6 -142 -7z"/>
<path d="M1042 1059 c-27 -10 -42 -47 -48 -114 -3 -43 0 -58 26 -98 29 -46 85
-90 105 -84 6 2 17 32 26 67 15 59 14 76 -4 158 -4 18 -41 56 -72 74 -5 3 -20
2 -33 -3z"/>
<path d="M2672 1059 c-44 -9 -47 -13 -46 -64 1 -50 34 -107 72 -124 36 -17 84
-13 120 9 28 17 31 23 22 40 -6 11 -8 20 -5 20 9 0 -26 60 -50 87 -26 29 -70
42 -113 32z"/>
<path d="M1857 1022 c-20 -22 -35 -87 -30 -127 6 -41 36 -88 79 -120 31 -24
67 -28 62 -8 -1 4 4 26 10 48 14 45 16 98 5 109 -8 7 -9 12 -12 39 -2 20 -61
77 -81 77 -9 0 -24 -8 -33 -18z"/>
<path d="M2127 943 c-9 -2 -15 -9 -12 -14 4 -5 2 -9 -3 -9 -20 0 -38 -125 -21
-136 5 -3 9 -13 9 -23 0 -21 82 -101 104 -101 36 0 52 169 20 218 -20 32 -62
73 -72 71 -4 -1 -15 -3 -25 -6z"/>
<path d="M818 911 c-25 -25 -38 -66 -38 -123 0 -42 6 -58 34 -97 19 -25 48
-54 65 -64 l31 -18 11 28 c35 86 27 181 -21 246 -16 23 -30 38 -30 34 0 -4 -8
-4 -17 1 -13 7 -23 5 -35 -7z"/>
<path d="M494 864 c-30 -16 -67 -54 -73 -75 -15 -50 2 -209 22 -209 21 0 95
50 111 76 20 30 28 63 28 119 0 83 -34 117 -88 89z"/>
<path d="M2450 860 c-36 -36 -18 -113 36 -159 32 -28 103 -31 141 -6 26 17 25
47 -2 103 -38 75 -129 108 -175 62z"/>
</g>
</svg>
